<svg xmlns:xlink="http://www.w3.org/1999/xlink" xmlns="http://www.w3.org/2000/svg" aria-hidden="true" class="eds_5nt5ak0 eds_5nt5ak9 eds_14hl3lj7" width="24" height="24" viewBox="0 0 24 24"><path d="M5.5 3.25A2.25 2.25 0 0 0 3.25 5.5v3a2.25 2.25 0 0 0 2.25 2.25h3a2.25 2.25 0 0 0 2.25-2.25v-3A2.25 2.25 0 0 0 8.5 3.25zM4.75 5.5a.75.75 0 0 1 .75-.75h3a.75.75 0 0 1 .75.75v3a.75.75 0 0 1-.75.75h-3a.75.75 0 0 1-.75-.75zm.75 7.75a2.25 2.25 0 0 0-2.25 2.25v3a2.25 2.25 0 0 0 2.25 2.25h3a2.25 2.25 0 0 0 2.25-2.25v-3a2.25 2.25 0 0 0-2.25-2.25zm-.75 2.25a.75.75 0 0 1 .75-.75h3a.75.75 0 0 1 .75.75v3a.75.75 0 0 1-.75.75h-3a.75.75 0 0 1-.75-.75zm8.5 0a2.25 2.25 0 0 1 2.25-2.25h3a2.25 2.25 0 0 1 2.25 2.25v3a2.25 2.25 0 0 1-2.25 2.25h-3a2.25 2.25 0 0 1-2.25-2.25zm2.25-.75a.75.75 0 0 0-.75.75v3c0 .414.336.75.75.75h3a.75.75 0 0 0 .75-.75v-3a.75.75 0 0 0-.75-.75zm0-11.5a2.25 2.25 0 0 0-2.25 2.25v3a2.25 2.25 0 0 0 2.25 2.25h3a2.25 2.25 0 0 0 2.25-2.25v-3a2.25 2.25 0 0 0-2.25-2.25zm-.75 2.25a.75.75 0 0 1 .75-.75h3a.75.75 0 0 1 .75.75v3a.75.75 0 0 1-.75.75h-3a.75.75 0 0 1-.75-.75z" clip-rule="evenodd" fill-rule="evenodd" fill="#FFFFFF"></path></svg>