<svg xmlns:xlink="http://www.w3.org/1999/xlink" width="24" height="24" viewBox="0 0 24 24" fill="none" xmlns="http://www.w3.org/2000/svg"><path fill-rule="evenodd" clip-rule="evenodd" d="M12 2C6.47712 2 2 6.47712 2 12C2 17.5229 6.47712 22 12 22C17.5229 22 22 17.5229 22 12C22 6.47712 17.5229 2 12 2ZM11 16.7774C9.52375 16.4571 8.40153 15.4288 8.40153 13.6339H10.0145C10.0145 15.0319 11.2244 15.408 12.1515 15.408C13.3075 15.408 13.9124 14.8839 13.9124 14.185C13.9124 13.4653 13.2117 13.2039 11.8468 12.6947L11.7347 12.6529L11.5196 12.572C9.74557 11.9 8.65668 11.3489 8.65668 9.81624C8.65668 8.46792 9.5199 7.48318 11 7.17562V6H13V7.15258C14.4964 7.41518 15.5392 8.3562 15.5392 10.2463H13.9262C13.9262 8.98251 13.0122 8.55247 12.0311 8.55247C10.956 8.55247 10.2834 9.03642 10.2834 9.69526C10.2834 10.4845 10.9361 10.7149 12.2939 11.1942L12.3132 11.201L12.5013 11.2681C14.1682 11.8598 15.62 12.451 15.62 14.1041C15.6195 15.4635 14.7408 16.5368 13 16.8158V18H11V16.7774Z" fill="#141414"></path></svg>