<svg xmlns:xlink="http://www.w3.org/1999/xlink" width="24" height="24" viewBox="0 0 24 24" fill="none" xmlns="http://www.w3.org/2000/svg"><path d="M18 9.5H17.3333V7C17.3333 4.2425 14.9413 2 12 2C9.05867 2 6.66667 4.2425 6.66667 7V9.5H6C4.89778 9.5 4 10.3408 4 11.375V20.125C4 21.1592 4.89778 22 6 22H18C19.1022 22 20 21.1592 20 20.125V11.375C20 10.3408 19.1022 9.5 18 9.5ZM8.44444 7C8.44444 5.16167 10.0391 3.66667 12 3.66667C13.9609 3.66667 15.5556 5.16167 15.5556 7V9.5H8.44444V7ZM12.8889 15.935V17.8333C12.8889 18.2933 12.4916 18.6667 12 18.6667C11.5084 18.6667 11.1111 18.2933 11.1111 17.8333V15.935C10.5822 15.6458 10.2222 15.1142 10.2222 14.5C10.2222 13.5808 11.0196 12.8333 12 12.8333C12.9804 12.8333 13.7778 13.5808 13.7778 14.5C13.7778 15.1142 13.4178 15.6458 12.8889 15.935Z" fill="#141414"></path></svg>